<?xml version="1.0" encoding="utf-8"?>
<!-- Generator: Adobe Illustrator 27.3.1, SVG Export Plug-In . SVG Version: 6.00 Build 0)  -->
<svg version="1.1" id="Layer_1" xmlns="http://www.w3.org/2000/svg" xmlns:xlink="http://www.w3.org/1999/xlink" x="0px" y="0px"
	 viewBox="0 0 192 74.4" style="enable-background:new 0 0 192 74.4;" xml:space="preserve">
<style type="text/css">
	.st0{fill:#FFFFFF;}
</style>
<g>
	<g>
		<path class="st0" d="M39.64,1.25C19.79,1.25,3.7,17.35,3.7,37.2c0,19.85,16.09,35.94,35.94,35.94c19.85,0,35.94-16.09,35.94-35.94
			C75.58,17.35,59.49,1.25,39.64,1.25z M20.54,54.23l-0.56-0.02l-0.53-0.02v-7.81l0-0.01l0.07-6.05c1.42,0.35,2.56,0,2.56,0
			l0.44,0.73c0,0,0.01,0,0.01,0l0.22,0.38l0,0l7.52,13.02L20.54,54.23z M31.17,32.36c-0.86,0.58-1.81,0.84-2.84,0.84
			c-2.68,0.01-5.35,0.03-8.03,0.04c-0.84,0-0.84,0-0.84-0.86c0-3.48,0-6.96,0-10.44c0-0.13,0.01-0.27,0.02-0.49
			c0.65,0,1.24,0,1.82,0c2.28,0,4.57-0.07,6.85,0.02c2.38,0.1,4.35,1.13,5.13,3.48C34.23,27.84,33.72,30.63,31.17,32.36z
			 M52.06,53.77c-2.11,0.01-4.22,0.01-6.32,0.01c-0.37,0-0.75-0.02-1.11-0.1c-0.21-0.05-0.44-0.18-0.58-0.35
			c-1.56-1.93-3.09-3.87-4.64-5.8c-1.91-2.38-3.82-4.75-5.73-7.13c-0.19-0.24-0.34-0.52-0.54-0.83c0.55-0.23,1.03-0.43,1.51-0.63
			c2.54-1.07,4.47-2.86,5.88-5.18c1.5-2.48,1.92-5.24,1.58-8.08c-0.52-4.39-2.9-7.55-6.77-9.63c-0.59-0.31-1.23-0.52-1.84-0.8
			c-0.12-0.05-0.2-0.2-0.3-0.3c0.12-0.09,0.23-0.24,0.35-0.25c3.54-0.09,7.14-0.2,10.27,1.75c4.27,2.67,6.47,6.59,6.03,11.72
			c-0.32,3.66-1.91,6.73-4.93,8.9c-1.07,0.77-2.35,1.24-3.54,1.84c-0.12,0.06-0.24,0.12-0.46,0.22c3.89,4.86,7.73,9.65,11.64,14.53
			C52.27,53.73,52.16,53.77,52.06,53.77z M57.17,50.07l1.04-1.8l1.04,1.8H57.17z M61.49,50.09l-0.03-0.05l-3.26-5.64l-3.14,5.43l0,0
			l-0.13,0.23l-0.01,0.02h-4.07l7.35-12.73l7.35,12.73H61.49z"/>
		<polygon class="st0" points="54.94,50.07 55.07,49.84 54.94,50.07 		"/>
		<polygon class="st0" points="55.07,49.84 55.07,49.83 55.07,49.83 		"/>
	</g>
	<g>
		<path class="st0" d="M100.78,30.44h-1.17v5.36h-3.75V20.37h6.88c3.26,0,5.29,1.94,5.29,5.16c0,2.47-1.19,3.95-3.09,4.56l4.06,5.71
			h-4.58L100.78,30.44z M102.33,23.94h-2.71v3.22h2.71c1.3,0,1.92-0.53,1.92-1.59C104.24,24.49,103.58,23.94,102.33,23.94z"/>
		<path class="st0" d="M114.85,23.94v2.29h6.26v3.57h-6.26v2.42h6.88v3.57H111.1V20.37h10.63v3.57H114.85z"/>
		<path class="st0" d="M134.05,20.37v10.18c0,3.7-2.54,5.53-5.56,5.53c-2.98,0-5.45-1.79-5.45-5.49v-0.71h3.79v0.6
			c0,1.74,0.77,2.03,1.65,2.03c0.93,0,1.76-0.33,1.76-2.07V20.37H134.05z"/>
		<path class="st0" d="M152.61,28.08c0,4.54-3.51,8-8.07,8c-4.56,0-8.07-3.46-8.07-8s3.5-8,8.07-8
			C149.1,20.08,152.61,23.54,152.61,28.08z M140.26,28.08c0,2.58,1.81,4.43,4.28,4.43c2.47,0,4.28-1.85,4.28-4.43
			s-1.81-4.43-4.28-4.43C142.07,23.65,140.26,25.5,140.26,28.08z"/>
		<path class="st0" d="M155.03,20.37h3.75V35.8h-3.75V20.37z"/>
		<path class="st0" d="M161.32,28.08c0-4.54,3.37-8,8-8c3.79,0,6.68,2.38,7.52,5.73h-4.01c-0.62-1.34-1.87-2.16-3.51-2.16
			c-2.56,0-4.21,1.85-4.21,4.43s1.65,4.43,4.21,4.43c1.63,0,2.89-0.82,3.51-2.16h4.01c-0.84,3.35-3.73,5.73-7.52,5.73
			C164.69,36.09,161.32,32.62,161.32,28.08z"/>
		<path class="st0" d="M182.9,23.94v2.29h6.26v3.57h-6.26v2.42h6.88v3.57h-10.63V20.37h10.63v3.57H182.9z"/>
	</g>
	<g>
		<path class="st0" d="M101.98,46.82c0.28-0.42,0.42-0.92,0.42-1.5c0-0.57-0.13-1.05-0.4-1.47c-0.26-0.41-0.65-0.73-1.14-0.95
			c-0.5-0.22-1.08-0.33-1.75-0.33h-3.17v7.72h1.43v-2.25h1.74c0.13,0,0.23,0,0.3-0.01l1.58,2.26h1.54l-1.77-2.54
			C101.29,47.55,101.69,47.23,101.98,46.82z M99.05,46.86h-1.68v-3.08h1.68c0.62,0,1.1,0.13,1.42,0.4c0.32,0.26,0.48,0.64,0.48,1.14
			s-0.16,0.87-0.48,1.14C100.15,46.73,99.67,46.86,99.05,46.86z"/>
		<polygon class="st0" points="105.43,46.96 109.16,46.96 109.16,45.78 105.43,45.78 105.43,43.77 109.63,43.77 109.63,42.57 
			104,42.57 104,50.29 109.79,50.29 109.79,49.09 105.43,49.09 		"/>
		<path class="st0" d="M113.58,44.07c0.42-0.23,0.89-0.35,1.42-0.35c0.82,0,1.5,0.3,2.06,0.9l0.93-0.87
			c-0.36-0.42-0.8-0.74-1.32-0.96s-1.1-0.33-1.73-0.33c-0.78,0-1.48,0.17-2.11,0.51c-0.63,0.34-1.12,0.81-1.48,1.42
			c-0.36,0.6-0.54,1.28-0.54,2.04c0,0.76,0.18,1.44,0.54,2.04c0.36,0.6,0.85,1.07,1.48,1.42c0.63,0.34,1.33,0.51,2.11,0.51
			c0.63,0,1.21-0.11,1.74-0.33c0.53-0.22,0.97-0.54,1.33-0.96l-0.93-0.88c-0.56,0.61-1.25,0.91-2.06,0.91c-0.53,0-1-0.12-1.42-0.35
			c-0.42-0.23-0.75-0.55-0.98-0.96c-0.24-0.41-0.35-0.88-0.35-1.4c0-0.52,0.12-0.99,0.35-1.4C112.83,44.62,113.16,44.3,113.58,44.07
			z"/>
		<path class="st0" d="M125.4,46.82c0.28-0.42,0.42-0.92,0.42-1.5c0-0.57-0.13-1.05-0.4-1.47c-0.26-0.41-0.65-0.73-1.14-0.95
			c-0.5-0.22-1.08-0.33-1.75-0.33h-3.17v7.72h1.43v-2.25h1.74c0.13,0,0.23,0,0.3-0.01l1.58,2.26h1.54l-1.77-2.54
			C124.71,47.55,125.12,47.23,125.4,46.82z M122.47,46.86h-1.68v-3.08h1.68c0.62,0,1.1,0.13,1.42,0.4c0.32,0.26,0.48,0.64,0.48,1.14
			s-0.16,0.87-0.48,1.14C123.57,46.73,123.1,46.86,122.47,46.86z"/>
		<path class="st0" d="M132.7,46.87c0,1.51-0.65,2.27-1.95,2.27c-1.31,0-1.96-0.76-1.96-2.27v-4.3h-1.43v4.35
			c0,1.12,0.3,1.97,0.89,2.57c0.59,0.6,1.43,0.9,2.49,0.9c1.07,0,1.89-0.3,2.49-0.9c0.59-0.6,0.89-1.46,0.89-2.57v-4.35h-1.41V46.87
			z"/>
		<rect x="136.12" y="42.57" class="st0" width="1.43" height="7.72"/>
		<polygon class="st0" points="138.64,43.78 141.2,43.78 141.2,50.29 142.63,50.29 142.63,43.78 145.19,43.78 145.19,42.57 
			138.64,42.57 		"/>
		<polygon class="st0" points="153.52,42.57 150.51,47.69 147.45,42.57 146.27,42.57 146.27,50.29 147.63,50.29 147.63,45.24 
			150.17,49.41 150.81,49.41 153.34,45.17 153.35,50.29 154.71,50.29 154.7,42.57 		"/>
		<polygon class="st0" points="158.23,46.96 161.95,46.96 161.95,45.78 158.23,45.78 158.23,43.77 162.43,43.77 162.43,42.57 
			156.79,42.57 156.79,50.29 162.58,50.29 162.58,49.09 158.23,49.09 		"/>
		<polygon class="st0" points="169.61,47.8 165.36,42.57 164.18,42.57 164.18,50.29 165.6,50.29 165.6,45.06 169.85,50.29 
			171.03,50.29 171.03,42.57 169.61,42.57 		"/>
		<polygon class="st0" points="172.11,42.57 172.11,43.78 174.67,43.78 174.67,50.29 176.1,50.29 176.1,43.78 178.66,43.78 
			178.66,42.57 		"/>
	</g>
	<g>
		<path class="st0" d="M98.32,54.14l-2.37,5.39h0.97l0.54-1.23h2.7l0.54,1.23h0.97l-2.37-5.39H98.32z M97.82,57.46l0.98-2.22
			l0.98,2.22H97.82z"/>
		<path class="st0" d="M106.14,58.39c-0.34,0.22-0.77,0.33-1.28,0.33s-0.95-0.17-1.31-0.52c-0.36-0.35-0.54-0.81-0.54-1.38
			s0.18-1.04,0.55-1.39c0.37-0.35,0.83-0.53,1.37-0.53c0.28,0,0.53,0.03,0.74,0.1c0.21,0.07,0.43,0.19,0.64,0.37l0.49-0.69
			c-0.51-0.45-1.16-0.68-1.94-0.68c-0.78,0-1.44,0.27-1.99,0.8c-0.55,0.53-0.82,1.2-0.82,2s0.27,1.46,0.81,1.99
			c0.54,0.52,1.2,0.79,2,0.79c0.95,0,1.67-0.28,2.18-0.84V56.9h-0.91V58.39z"/>
		<polygon class="st0" points="109.16,57.23 111.74,57.23 111.74,56.42 109.16,56.42 109.16,54.99 112.03,54.99 112.03,54.14 
			108.25,54.14 108.25,59.53 112.13,59.53 112.13,58.67 109.16,58.67 		"/>
		<polygon class="st0" points="117.33,58.16 114.2,54.14 113.29,54.14 113.29,59.53 114.2,59.53 114.2,55.59 117.25,59.53 
			118.24,59.53 118.24,54.14 117.33,54.14 		"/>
		<path class="st0" d="M122.26,54.9c0.31,0,0.58,0.05,0.81,0.15c0.23,0.1,0.47,0.27,0.73,0.52l0.58-0.63
			c-0.56-0.62-1.26-0.93-2.09-0.93c-0.84,0-1.53,0.27-2.07,0.8c-0.55,0.53-0.82,1.2-0.82,2s0.27,1.46,0.81,1.99
			c0.54,0.52,1.21,0.79,2.03,0.79c0.81,0,1.51-0.32,2.08-0.95l-0.59-0.6c-0.25,0.23-0.48,0.4-0.71,0.5
			c-0.23,0.11-0.5,0.16-0.81,0.16c-0.5,0-0.94-0.18-1.31-0.55c-0.37-0.37-0.55-0.83-0.55-1.37s0.18-1,0.55-1.35
			C121.26,55.08,121.72,54.9,122.26,54.9z"/>
		<polygon class="st0" points="128.54,54.14 127.07,56.59 125.6,54.14 124.6,54.14 126.61,57.4 126.61,59.53 127.53,59.53 
			127.53,57.4 129.54,54.14 		"/>
	</g>
	<g>
		<path class="st0" d="M96.98,65.49c-0.21-0.1-0.38-0.25-0.49-0.44c-0.12-0.19-0.17-0.41-0.17-0.66c0-0.33,0.08-0.63,0.23-0.9
			c0.15-0.27,0.36-0.48,0.64-0.64c0.27-0.16,0.59-0.23,0.95-0.23c0.25,0,0.48,0.04,0.67,0.13c0.2,0.08,0.34,0.21,0.44,0.37
			l-0.4,0.33c-0.16-0.23-0.42-0.34-0.76-0.34c-0.24,0-0.46,0.06-0.64,0.17c-0.18,0.11-0.33,0.26-0.43,0.46
			c-0.1,0.19-0.15,0.4-0.15,0.63c0,0.25,0.08,0.45,0.24,0.59c0.16,0.15,0.39,0.22,0.68,0.22c0.34,0,0.62-0.11,0.84-0.34l0.32,0.34
			c-0.14,0.16-0.31,0.28-0.52,0.36s-0.43,0.12-0.68,0.12C97.45,65.65,97.2,65.6,96.98,65.49z"/>
		<path class="st0" d="M99.71,65.51c-0.16-0.08-0.29-0.2-0.38-0.35c-0.09-0.15-0.13-0.32-0.13-0.52c0-0.25,0.06-0.47,0.17-0.67
			c0.11-0.2,0.27-0.36,0.47-0.47c0.2-0.11,0.43-0.17,0.69-0.17c0.22,0,0.41,0.04,0.58,0.12c0.17,0.08,0.29,0.2,0.38,0.35
			c0.09,0.15,0.13,0.32,0.13,0.52c0,0.25-0.06,0.47-0.17,0.67c-0.12,0.2-0.27,0.36-0.48,0.47c-0.2,0.11-0.43,0.17-0.69,0.17
			C100.07,65.64,99.88,65.59,99.71,65.51z M100.72,65.08c0.12-0.07,0.21-0.17,0.28-0.3c0.07-0.13,0.1-0.27,0.1-0.44
			c0-0.18-0.05-0.31-0.16-0.41c-0.1-0.1-0.25-0.15-0.44-0.15c-0.15,0-0.28,0.04-0.4,0.11c-0.12,0.07-0.21,0.17-0.28,0.3
			c-0.07,0.13-0.1,0.27-0.1,0.44c0,0.18,0.05,0.31,0.16,0.41c0.1,0.1,0.25,0.15,0.44,0.15C100.47,65.18,100.6,65.15,100.72,65.08z"
			/>
		<path class="st0" d="M104.16,63.53c0.15,0.13,0.22,0.32,0.22,0.56c0,0.07-0.01,0.16-0.03,0.27l-0.25,1.24h-0.53l0.24-1.23
			c0.01-0.06,0.02-0.11,0.02-0.17c0-0.27-0.15-0.41-0.45-0.41c-0.19,0-0.35,0.05-0.48,0.16c-0.13,0.11-0.21,0.27-0.26,0.49
			l-0.24,1.16h-0.53l0.45-2.25h0.5l-0.05,0.25c0.2-0.18,0.46-0.27,0.77-0.27C103.81,63.33,104.01,63.4,104.16,63.53z"/>
		<path class="st0" d="M107.04,63.53c0.15,0.13,0.22,0.32,0.22,0.56c0,0.07-0.01,0.16-0.03,0.27l-0.25,1.24h-0.53l0.24-1.23
			c0.01-0.06,0.02-0.11,0.02-0.17c0-0.27-0.15-0.41-0.45-0.41c-0.19,0-0.35,0.05-0.48,0.16c-0.13,0.11-0.21,0.27-0.26,0.49
			l-0.24,1.16h-0.53l0.45-2.25h0.5l-0.05,0.25c0.2-0.18,0.46-0.27,0.77-0.27C106.69,63.33,106.89,63.4,107.04,63.53z"/>
		<path class="st0" d="M109.99,64.64h-1.78c0.01,0.37,0.22,0.55,0.65,0.55c0.13,0,0.25-0.02,0.36-0.06c0.11-0.04,0.21-0.1,0.29-0.17
			l0.22,0.37c-0.12,0.1-0.25,0.18-0.41,0.23s-0.33,0.08-0.51,0.08c-0.22,0-0.42-0.04-0.59-0.12c-0.17-0.08-0.29-0.2-0.38-0.35
			c-0.09-0.15-0.13-0.32-0.13-0.52c0-0.25,0.05-0.47,0.17-0.67s0.26-0.36,0.46-0.47c0.2-0.11,0.42-0.17,0.67-0.17
			c0.31,0,0.56,0.09,0.75,0.26c0.19,0.18,0.28,0.42,0.28,0.72C110.02,64.43,110.01,64.53,109.99,64.64z M108.51,63.9
			c-0.13,0.1-0.21,0.23-0.26,0.39h1.29c0-0.17-0.05-0.3-0.15-0.39c-0.11-0.09-0.25-0.14-0.42-0.14S108.63,63.8,108.51,63.9z"/>
		<path class="st0" d="M110.81,65.51c-0.17-0.08-0.29-0.2-0.38-0.35c-0.09-0.15-0.13-0.32-0.13-0.52c0-0.25,0.06-0.47,0.17-0.67
			c0.12-0.2,0.27-0.36,0.48-0.47c0.2-0.11,0.44-0.17,0.7-0.17c0.23,0,0.42,0.04,0.59,0.13c0.16,0.09,0.29,0.22,0.38,0.39l-0.45,0.23
			c-0.1-0.21-0.29-0.31-0.56-0.31c-0.15,0-0.28,0.04-0.4,0.11c-0.12,0.07-0.21,0.17-0.28,0.3s-0.1,0.27-0.1,0.44
			c0,0.18,0.05,0.31,0.16,0.41c0.1,0.1,0.25,0.15,0.44,0.15c0.13,0,0.25-0.03,0.35-0.08s0.19-0.13,0.26-0.23l0.39,0.26
			c-0.1,0.16-0.25,0.28-0.43,0.37c-0.18,0.09-0.38,0.13-0.6,0.13C111.18,65.64,110.98,65.59,110.81,65.51z"/>
		<path class="st0" d="M113.49,64.85c-0.01,0.05-0.01,0.08-0.01,0.1c0,0.17,0.09,0.25,0.26,0.25c0.11,0,0.21-0.03,0.29-0.09
			l0.09,0.39c-0.14,0.09-0.32,0.13-0.54,0.13c-0.19,0-0.35-0.05-0.47-0.16c-0.12-0.11-0.18-0.25-0.18-0.44
			c0-0.06,0.01-0.12,0.02-0.18l0.22-1.06h-0.37l0.08-0.42h0.37l0.1-0.51h0.53l-0.1,0.51h0.61l-0.08,0.42h-0.61L113.49,64.85z"/>
		<path class="st0" d="M114.98,63.36h0.53l-0.45,2.25h-0.53L114.98,63.36z M115.13,62.9c-0.06-0.06-0.09-0.13-0.09-0.21
			c0-0.1,0.03-0.18,0.1-0.24c0.07-0.06,0.15-0.1,0.26-0.1c0.09,0,0.17,0.03,0.23,0.08c0.06,0.05,0.09,0.12,0.09,0.2
			c0,0.1-0.03,0.19-0.1,0.25c-0.07,0.06-0.15,0.1-0.26,0.1C115.27,62.99,115.19,62.96,115.13,62.9z"/>
		<path class="st0" d="M118.01,63.53c0.15,0.13,0.22,0.32,0.22,0.56c0,0.07-0.01,0.16-0.03,0.27l-0.25,1.24h-0.53l0.24-1.23
			c0.01-0.06,0.02-0.11,0.02-0.17c0-0.27-0.15-0.41-0.45-0.41c-0.19,0-0.35,0.05-0.48,0.16c-0.13,0.11-0.21,0.27-0.26,0.49
			l-0.24,1.16h-0.53l0.45-2.25h0.5l-0.05,0.25c0.2-0.18,0.46-0.27,0.77-0.27C117.67,63.33,117.87,63.4,118.01,63.53z"/>
		<path class="st0" d="M121.33,63.36l-0.38,1.91c-0.08,0.41-0.24,0.71-0.47,0.9c-0.23,0.19-0.53,0.28-0.92,0.28
			c-0.44,0-0.79-0.1-1.05-0.31l0.27-0.4c0.09,0.08,0.2,0.14,0.35,0.18c0.14,0.05,0.3,0.07,0.46,0.07c0.24,0,0.43-0.05,0.55-0.16
			c0.13-0.11,0.21-0.27,0.26-0.49l0.02-0.11c-0.2,0.17-0.45,0.26-0.74,0.26c-0.19,0-0.37-0.04-0.52-0.11
			c-0.15-0.08-0.27-0.18-0.36-0.32c-0.09-0.14-0.13-0.3-0.13-0.49c0-0.23,0.05-0.44,0.16-0.63c0.11-0.19,0.26-0.34,0.46-0.45
			c0.19-0.11,0.41-0.16,0.65-0.16c0.18,0,0.34,0.03,0.48,0.1c0.14,0.07,0.25,0.16,0.32,0.3l0.07-0.37H121.33z M120.2,64.96
			c0.12-0.07,0.21-0.16,0.27-0.27c0.07-0.12,0.1-0.25,0.1-0.39c0-0.16-0.05-0.29-0.15-0.38c-0.1-0.09-0.25-0.14-0.43-0.14
			c-0.15,0-0.28,0.03-0.4,0.1c-0.12,0.07-0.21,0.16-0.27,0.27c-0.07,0.12-0.1,0.25-0.1,0.39c0,0.16,0.05,0.28,0.16,0.37
			c0.11,0.09,0.25,0.14,0.44,0.14C119.95,65.06,120.08,65.03,120.2,64.96z"/>
		<path class="st0" d="M125.33,62.9c0.2,0.16,0.29,0.37,0.29,0.65c0,0.25-0.06,0.46-0.17,0.65c-0.11,0.18-0.28,0.32-0.49,0.42
			c-0.21,0.1-0.46,0.15-0.75,0.15h-0.72l-0.17,0.85h-0.55l0.59-2.94h1.14C124.86,62.66,125.13,62.74,125.33,62.9z M124.85,64.11
			c0.14-0.12,0.22-0.29,0.22-0.51c0-0.16-0.05-0.28-0.16-0.36c-0.11-0.08-0.26-0.12-0.46-0.12h-0.62l-0.23,1.17h0.65
			C124.5,64.29,124.71,64.23,124.85,64.11z"/>
		<path class="st0" d="M128.05,64.64h-1.78c0.01,0.37,0.22,0.55,0.65,0.55c0.13,0,0.25-0.02,0.36-0.06c0.11-0.04,0.21-0.1,0.29-0.17
			l0.22,0.37c-0.12,0.1-0.25,0.18-0.41,0.23s-0.33,0.08-0.51,0.08c-0.22,0-0.42-0.04-0.59-0.12c-0.17-0.08-0.29-0.2-0.38-0.35
			c-0.09-0.15-0.13-0.32-0.13-0.52c0-0.25,0.05-0.47,0.17-0.67s0.26-0.36,0.46-0.47c0.2-0.11,0.42-0.17,0.67-0.17
			c0.31,0,0.56,0.09,0.75,0.26c0.19,0.18,0.28,0.42,0.28,0.72C128.08,64.43,128.07,64.53,128.05,64.64z M126.57,63.9
			c-0.13,0.1-0.21,0.23-0.26,0.39h1.29c0-0.17-0.05-0.3-0.15-0.39c-0.11-0.09-0.25-0.14-0.42-0.14
			C126.84,63.76,126.69,63.8,126.57,63.9z"/>
		<path class="st0" d="M128.87,65.51c-0.16-0.08-0.29-0.2-0.38-0.35c-0.09-0.15-0.13-0.32-0.13-0.52c0-0.25,0.06-0.47,0.17-0.67
			c0.11-0.2,0.27-0.36,0.47-0.47c0.2-0.11,0.43-0.17,0.69-0.17c0.22,0,0.41,0.04,0.58,0.12c0.17,0.08,0.29,0.2,0.38,0.35
			c0.09,0.15,0.13,0.32,0.13,0.52c0,0.25-0.06,0.47-0.17,0.67c-0.12,0.2-0.27,0.36-0.48,0.47c-0.2,0.11-0.43,0.17-0.69,0.17
			C129.22,65.64,129.03,65.59,128.87,65.51z M129.87,65.08c0.12-0.07,0.21-0.17,0.28-0.3c0.07-0.13,0.1-0.27,0.1-0.44
			c0-0.18-0.05-0.31-0.16-0.41c-0.1-0.1-0.25-0.15-0.44-0.15c-0.15,0-0.28,0.04-0.4,0.11c-0.12,0.07-0.21,0.17-0.28,0.3
			c-0.07,0.13-0.1,0.27-0.1,0.44c0,0.18,0.05,0.31,0.16,0.41c0.1,0.1,0.25,0.15,0.44,0.15C129.62,65.18,129.76,65.15,129.87,65.08z"
			/>
		<path class="st0" d="M133.18,63.45c0.15,0.08,0.27,0.19,0.36,0.34c0.09,0.15,0.13,0.32,0.13,0.53c0,0.25-0.06,0.47-0.17,0.68
			c-0.11,0.2-0.26,0.36-0.45,0.47c-0.19,0.11-0.41,0.17-0.64,0.17c-0.18,0-0.33-0.03-0.46-0.09c-0.13-0.06-0.23-0.15-0.31-0.27
			l-0.23,1.15h-0.53l0.61-3.06h0.5l-0.05,0.24c0.2-0.17,0.44-0.26,0.73-0.26C132.86,63.33,133.03,63.37,133.18,63.45z M132.76,65.08
			c0.12-0.07,0.21-0.17,0.27-0.3c0.07-0.13,0.1-0.27,0.1-0.44c0-0.18-0.05-0.31-0.15-0.41c-0.1-0.1-0.25-0.15-0.44-0.15
			c-0.15,0-0.28,0.04-0.4,0.11c-0.12,0.07-0.21,0.17-0.28,0.3c-0.07,0.13-0.1,0.27-0.1,0.44c0,0.18,0.05,0.31,0.16,0.41
			s0.25,0.15,0.44,0.15C132.51,65.18,132.64,65.15,132.76,65.08z"/>
		<path class="st0" d="M134.55,62.49h0.53l-0.62,3.12h-0.53L134.55,62.49z"/>
		<path class="st0" d="M137.46,64.64h-1.78c0.01,0.37,0.22,0.55,0.65,0.55c0.13,0,0.25-0.02,0.36-0.06c0.11-0.04,0.21-0.1,0.29-0.17
			l0.22,0.37c-0.12,0.1-0.25,0.18-0.41,0.23s-0.33,0.08-0.51,0.08c-0.22,0-0.42-0.04-0.59-0.12c-0.17-0.08-0.29-0.2-0.38-0.35
			c-0.09-0.15-0.13-0.32-0.13-0.52c0-0.25,0.05-0.47,0.17-0.67c0.11-0.2,0.26-0.36,0.46-0.47c0.2-0.11,0.42-0.17,0.67-0.17
			c0.31,0,0.56,0.09,0.75,0.26c0.19,0.18,0.28,0.42,0.28,0.72C137.5,64.43,137.48,64.53,137.46,64.64z M135.98,63.9
			c-0.13,0.1-0.21,0.23-0.26,0.39h1.29c0-0.17-0.05-0.3-0.15-0.39c-0.11-0.09-0.25-0.14-0.42-0.14
			C136.26,63.76,136.11,63.8,135.98,63.9z"/>
		<path class="st0" d="M138.23,65.03c0.06,0.06,0.09,0.14,0.09,0.24c0,0.05-0.01,0.1-0.03,0.14c-0.02,0.04-0.05,0.1-0.09,0.18
			l-0.39,0.65h-0.34l0.3-0.66c-0.05-0.03-0.08-0.07-0.11-0.12c-0.03-0.05-0.04-0.1-0.04-0.16c0-0.11,0.04-0.19,0.11-0.26
			c0.07-0.07,0.16-0.1,0.26-0.1C138.09,64.94,138.17,64.97,138.23,65.03z"/>
		<path class="st0" d="M140.72,65.49c-0.21-0.1-0.38-0.25-0.49-0.44c-0.12-0.19-0.17-0.41-0.17-0.66c0-0.33,0.08-0.63,0.23-0.9
			c0.15-0.27,0.36-0.48,0.64-0.64c0.27-0.16,0.59-0.23,0.95-0.23c0.25,0,0.48,0.04,0.67,0.13c0.2,0.08,0.34,0.21,0.44,0.37
			l-0.4,0.33c-0.16-0.23-0.42-0.34-0.76-0.34c-0.24,0-0.46,0.06-0.64,0.17s-0.33,0.26-0.43,0.46c-0.1,0.19-0.15,0.4-0.15,0.63
			c0,0.25,0.08,0.45,0.24,0.59c0.16,0.15,0.39,0.22,0.68,0.22c0.34,0,0.62-0.11,0.84-0.34l0.32,0.34c-0.14,0.16-0.31,0.28-0.52,0.36
			s-0.43,0.12-0.68,0.12C141.18,65.65,140.93,65.6,140.72,65.49z"/>
		<path class="st0" d="M145.26,63.53c0.15,0.13,0.22,0.32,0.22,0.56c0,0.07-0.01,0.16-0.03,0.27l-0.25,1.24h-0.53l0.24-1.23
			c0.01-0.06,0.02-0.11,0.02-0.17c0-0.27-0.15-0.41-0.45-0.41c-0.19,0-0.35,0.05-0.48,0.16c-0.13,0.11-0.21,0.27-0.26,0.49
			l-0.24,1.16h-0.53l0.62-3.12h0.53l-0.22,1.1c0.19-0.17,0.44-0.25,0.74-0.25C144.91,63.33,145.11,63.4,145.26,63.53z"/>
		<path class="st0" d="M148.54,63.36l-0.45,2.25h-0.5l0.05-0.23c-0.2,0.17-0.44,0.26-0.73,0.26c-0.19,0-0.35-0.04-0.5-0.12
			c-0.15-0.08-0.27-0.19-0.36-0.34c-0.09-0.15-0.13-0.33-0.13-0.53c0-0.25,0.05-0.47,0.17-0.67c0.11-0.2,0.26-0.36,0.45-0.47
			s0.41-0.17,0.65-0.17c0.36,0,0.61,0.12,0.76,0.36l0.06-0.33H148.54z M147.44,65.08c0.12-0.07,0.21-0.17,0.28-0.3
			c0.07-0.13,0.1-0.27,0.1-0.44c0-0.18-0.05-0.31-0.16-0.41c-0.1-0.1-0.25-0.15-0.44-0.15c-0.15,0-0.28,0.04-0.4,0.11
			c-0.12,0.07-0.21,0.17-0.28,0.3c-0.07,0.13-0.1,0.27-0.1,0.44c0,0.18,0.05,0.31,0.16,0.41c0.1,0.1,0.25,0.15,0.44,0.15
			C147.19,65.18,147.32,65.15,147.44,65.08z"/>
		<path class="st0" d="M151.05,63.53c0.15,0.13,0.22,0.32,0.22,0.56c0,0.07-0.01,0.16-0.03,0.27l-0.25,1.24h-0.53l0.24-1.23
			c0.01-0.06,0.02-0.11,0.02-0.17c0-0.27-0.15-0.41-0.45-0.41c-0.19,0-0.35,0.05-0.48,0.16c-0.13,0.11-0.21,0.27-0.26,0.49
			l-0.24,1.16h-0.53l0.45-2.25h0.5l-0.05,0.25c0.2-0.18,0.46-0.27,0.77-0.27C150.7,63.33,150.9,63.4,151.05,63.53z"/>
		<path class="st0" d="M154.36,63.36l-0.38,1.91c-0.08,0.41-0.24,0.71-0.47,0.9c-0.23,0.19-0.53,0.28-0.92,0.28
			c-0.44,0-0.79-0.1-1.05-0.31l0.27-0.4c0.09,0.08,0.2,0.14,0.35,0.18c0.14,0.05,0.3,0.07,0.46,0.07c0.24,0,0.43-0.05,0.55-0.16
			c0.13-0.11,0.21-0.27,0.26-0.49l0.02-0.11c-0.2,0.17-0.45,0.26-0.74,0.26c-0.19,0-0.37-0.04-0.52-0.11
			c-0.15-0.08-0.27-0.18-0.36-0.32c-0.09-0.14-0.13-0.3-0.13-0.49c0-0.23,0.05-0.44,0.16-0.63c0.11-0.19,0.26-0.34,0.46-0.45
			c0.19-0.11,0.41-0.16,0.65-0.16c0.18,0,0.34,0.03,0.48,0.1c0.14,0.07,0.25,0.16,0.32,0.3l0.07-0.37H154.36z M153.23,64.96
			c0.12-0.07,0.21-0.16,0.27-0.27c0.07-0.12,0.1-0.25,0.1-0.39c0-0.16-0.05-0.29-0.15-0.38c-0.1-0.09-0.25-0.14-0.43-0.14
			c-0.15,0-0.28,0.03-0.4,0.1c-0.12,0.07-0.21,0.16-0.27,0.27c-0.07,0.12-0.1,0.25-0.1,0.39c0,0.16,0.05,0.28,0.16,0.37
			c0.11,0.09,0.25,0.14,0.44,0.14C152.99,65.06,153.12,65.03,153.23,64.96z"/>
		<path class="st0" d="M155.05,63.36h0.53l-0.45,2.25h-0.53L155.05,63.36z M155.2,62.9c-0.06-0.06-0.09-0.13-0.09-0.21
			c0-0.1,0.03-0.18,0.1-0.24c0.07-0.06,0.15-0.1,0.26-0.1c0.09,0,0.17,0.03,0.23,0.08c0.06,0.05,0.09,0.12,0.09,0.2
			c0,0.1-0.03,0.19-0.1,0.25c-0.07,0.06-0.15,0.1-0.26,0.1C155.34,62.99,155.26,62.96,155.2,62.9z"/>
		<path class="st0" d="M158.08,63.53c0.15,0.13,0.22,0.32,0.22,0.56c0,0.07-0.01,0.16-0.03,0.27l-0.25,1.24h-0.53l0.24-1.23
			c0.01-0.06,0.02-0.11,0.02-0.17c0-0.27-0.15-0.41-0.45-0.41c-0.19,0-0.35,0.05-0.48,0.16c-0.13,0.11-0.21,0.27-0.26,0.49
			l-0.24,1.16h-0.53l0.45-2.25h0.5l-0.05,0.25c0.2-0.18,0.46-0.27,0.77-0.27C157.74,63.33,157.94,63.4,158.08,63.53z"/>
		<path class="st0" d="M161.4,63.36l-0.38,1.91c-0.08,0.41-0.24,0.71-0.47,0.9c-0.23,0.19-0.53,0.28-0.92,0.28
			c-0.44,0-0.79-0.1-1.05-0.31l0.27-0.4c0.09,0.08,0.2,0.14,0.35,0.18c0.14,0.05,0.3,0.07,0.46,0.07c0.24,0,0.43-0.05,0.55-0.16
			c0.13-0.11,0.21-0.27,0.26-0.49l0.02-0.11c-0.2,0.17-0.45,0.26-0.74,0.26c-0.19,0-0.37-0.04-0.52-0.11
			c-0.15-0.08-0.27-0.18-0.36-0.32s-0.13-0.3-0.13-0.49c0-0.23,0.05-0.44,0.16-0.63c0.11-0.19,0.26-0.34,0.46-0.45
			c0.19-0.11,0.41-0.16,0.65-0.16c0.18,0,0.34,0.03,0.48,0.1c0.14,0.07,0.25,0.16,0.32,0.3l0.07-0.37H161.4z M160.27,64.96
			c0.12-0.07,0.21-0.16,0.27-0.27c0.07-0.12,0.1-0.25,0.1-0.39c0-0.16-0.05-0.29-0.15-0.38c-0.1-0.09-0.25-0.14-0.43-0.14
			c-0.15,0-0.28,0.03-0.4,0.1c-0.12,0.07-0.21,0.16-0.27,0.27c-0.07,0.12-0.1,0.25-0.1,0.39c0,0.16,0.05,0.28,0.16,0.37
			c0.11,0.09,0.25,0.14,0.44,0.14C160.02,65.06,160.15,65.03,160.27,64.96z"/>
		<path class="st0" d="M163.44,62.66h0.55l-0.5,2.48h1.54l-0.09,0.46h-2.09L163.44,62.66z"/>
		<path class="st0" d="M165.76,63.36h0.53l-0.45,2.25h-0.53L165.76,63.36z M165.92,62.9c-0.06-0.06-0.09-0.13-0.09-0.21
			c0-0.1,0.03-0.18,0.1-0.24c0.07-0.06,0.15-0.1,0.26-0.1c0.09,0,0.17,0.03,0.23,0.08c0.06,0.05,0.09,0.12,0.09,0.2
			c0,0.1-0.03,0.19-0.1,0.25c-0.07,0.06-0.15,0.1-0.26,0.1C166.05,62.99,165.98,62.96,165.92,62.9z"/>
		<path class="st0" d="M169.08,63.36l-1.41,2.25h-0.54l-0.52-2.25h0.52l0.37,1.67l1.05-1.67H169.08z"/>
		<path class="st0" d="M171.22,64.64h-1.78c0.01,0.37,0.22,0.55,0.65,0.55c0.13,0,0.25-0.02,0.36-0.06c0.11-0.04,0.21-0.1,0.29-0.17
			l0.22,0.37c-0.12,0.1-0.25,0.18-0.41,0.23s-0.33,0.08-0.51,0.08c-0.22,0-0.42-0.04-0.59-0.12c-0.17-0.08-0.29-0.2-0.38-0.35
			c-0.09-0.15-0.13-0.32-0.13-0.52c0-0.25,0.05-0.47,0.17-0.67c0.11-0.2,0.26-0.36,0.46-0.47c0.2-0.11,0.42-0.17,0.67-0.17
			c0.31,0,0.56,0.09,0.75,0.26c0.19,0.18,0.28,0.42,0.28,0.72C171.25,64.43,171.24,64.53,171.22,64.64z M169.74,63.9
			c-0.13,0.1-0.21,0.23-0.26,0.39h1.29c0-0.17-0.05-0.3-0.15-0.39c-0.11-0.09-0.25-0.14-0.42-0.14S169.86,63.8,169.74,63.9z"/>
		<path class="st0" d="M171.72,65.57c-0.17-0.05-0.31-0.1-0.4-0.17l0.22-0.4c0.09,0.07,0.21,0.12,0.35,0.16
			c0.14,0.04,0.28,0.06,0.43,0.06c0.17,0,0.29-0.02,0.38-0.07c0.09-0.05,0.13-0.11,0.13-0.2c0-0.07-0.04-0.12-0.11-0.15
			c-0.07-0.03-0.18-0.06-0.34-0.1c-0.16-0.03-0.29-0.06-0.39-0.1c-0.1-0.04-0.19-0.09-0.26-0.17c-0.07-0.08-0.11-0.19-0.11-0.33
			c0-0.23,0.1-0.42,0.29-0.55c0.19-0.14,0.45-0.2,0.78-0.2c0.15,0,0.3,0.02,0.45,0.05c0.15,0.04,0.26,0.08,0.36,0.14l-0.19,0.4
			c-0.09-0.06-0.2-0.1-0.31-0.13c-0.12-0.03-0.23-0.04-0.35-0.04c-0.17,0-0.29,0.03-0.38,0.08c-0.09,0.05-0.13,0.12-0.13,0.2
			c0,0.07,0.04,0.13,0.11,0.16c0.07,0.03,0.19,0.07,0.35,0.1c0.16,0.03,0.29,0.06,0.39,0.1c0.1,0.04,0.19,0.09,0.26,0.17
			c0.07,0.08,0.11,0.19,0.11,0.32c0,0.24-0.1,0.43-0.29,0.56c-0.2,0.13-0.46,0.2-0.78,0.2C172.08,65.64,171.89,65.61,171.72,65.57z"
			/>
		<path class="st0" d="M173.65,65.54c-0.06-0.06-0.09-0.14-0.09-0.24c0-0.11,0.04-0.19,0.11-0.26c0.07-0.07,0.16-0.1,0.26-0.1
			c0.09,0,0.17,0.03,0.23,0.09c0.06,0.06,0.09,0.14,0.09,0.24c0,0.11-0.04,0.2-0.11,0.27c-0.07,0.07-0.16,0.1-0.25,0.1
			C173.79,65.64,173.71,65.6,173.65,65.54z"/>
	</g>
</g>
</svg>
